<?xml version="1.0" standalone="no"?>
<!DOCTYPE svg PUBLIC "-//W3C//DTD SVG 20010904//EN"
 "http://www.w3.org/TR/2001/REC-SVG-20010904/DTD/svg10.dtd">
<svg version="1.0" xmlns="http://www.w3.org/2000/svg"
 width="600.000000pt" height="600.000000pt" viewBox="0 0 600.000000 600.000000"
 preserveAspectRatio="xMidYMid meet">

<g transform="translate(0.000000,600.000000) scale(0.100000,-0.100000)"
fill="#000000" stroke="none">
<path d="M2795 5990 c-969 -71 -1825 -587 -2344 -1415 -76 -122 -207 -386
-254 -515 -134 -362 -190 -675 -190 -1060 0 -483 93 -887 303 -1315 370 -757
1025 -1311 1840 -1558 451 -137 984 -159 1459 -61 411 85 819 266 1161 517
528 387 911 931 1103 1567 137 451 159 984 61 1459 -85 411 -267 820 -517
1161 -390 530 -930 911 -1567 1103 -315 96 -724 141 -1055 117z m306 -1611
c-39 -470 -73 -869 -75 -886 l-5 -33 680 0 c420 0 679 -4 677 -9 -1 -6 -340
-620 -753 -1365 -665 -1202 -750 -1351 -752 -1318 -2 20 30 427 70 905 l73
867 -678 0 c-373 0 -678 3 -678 6 0 19 1506 2721 1508 2706 2 -11 -29 -403
-67 -873z"/>
</g>
</svg>
